#Comment line ignore any data following # character 
#Hierarchical Translation and Rotation (.htr) file 
[Header]	
#Header keywords are followed by a single value 
FileType HTR		#Single word string
DataType HTRS		#Translation followed by rotation and scale data
FileVersion 1		#integer
NumSegments 84		#integer
NumFrames 2		#integer
DataFrameRate 30		#integer, data frame rate in this file
EulerRotationOrder ZYX
CalibrationUnits mm
RotationUnits Degrees
GlobalAxisofGravity Y
BoneLengthAxis Y
ScaleFactor 1.00
[SegmentNames&Hierarchy]
#CHILD	PARENT
MASTER GLOBAL
root MASTER
chest root
L_mid_tent01 root
R_mid_tent01 root
spine01 root
Bip01_Neck chest
L_humerus chest
R_humerus chest
weapon_bone chest
Bip01_Head Bip01_Neck
eye_left_bone Bip01_Head
eye_right_bone Bip01_Head
L_forearm L_humerus
L_front_hand L_forearm
L_weapon_bone L_forearm
L_front_hand01_01 L_front_hand
L_front_hand02_01 L_front_hand
L_front_hand03_01 L_front_hand
L_front_hand01_02 L_front_hand01_01
L_front_hand02_02 L_front_hand02_01
L_front_hand03_02 L_front_hand03_01
R_forearm R_humerus
R_front_hand R_forearm
R_weapon_bone R_forearm
R_front_hand01_01 R_front_hand
R_front_hand02_01 R_front_hand
R_front_hand03_01 R_front_hand
R_front_hand01_02 R_front_hand01_01
R_front_hand02_02 R_front_hand02_01
R_front_hand03_02 R_front_hand03_01
null_rope01_connect L_mid_tent01
Rope1_Seg01 null_rope01_connect
Rope1_Seg02 Rope1_Seg01
Rope1_Seg03 Rope1_Seg02
Rope1_Seg04 Rope1_Seg03
Rope1_Seg05 Rope1_Seg04
Rope1_Seg06 Rope1_Seg05
Rope1_Seg07 Rope1_Seg06
Rope1_Seg09 Rope1_Seg07
L_mid_hand01 Rope1_Seg09
L_mid_hand02 Rope1_Seg09
L_mid_hand03 Rope1_Seg09
null_rope02_connect R_mid_tent01
Rope2_Seg01 null_rope02_connect
Rope2_Seg02 Rope2_Seg01
Rope2_Seg03 Rope2_Seg02
Rope2_Seg04 Rope2_Seg03
Rope2_Seg05 Rope2_Seg04
Rope2_Seg06 Rope2_Seg05
Rope2_Seg07 Rope2_Seg06
Rope2_Seg09 Rope2_Seg07
R_mid_hand01 Rope2_Seg09
R_mid_hand02 Rope2_Seg09
R_mid_hand03 Rope2_Seg09
spine02 spine01
spine03 spine02
pelvis spine03
null_rope03_connect pelvis
null_rope04_connect pelvis
Rope3_Seg01 null_rope03_connect
Rope3_Seg02 Rope3_Seg01
Rope3_Seg03 Rope3_Seg02
Rope3_Seg04 Rope3_Seg03
Rope3_Seg05 Rope3_Seg04
Rope3_Seg06 Rope3_Seg05
Rope3_Seg07 Rope3_Seg06
Rope3_Seg08 Rope3_Seg07
Rope3_Seg09 Rope3_Seg08
R_rear_hand01 Rope3_Seg09
R_rear_hand02 Rope3_Seg09
R_rear_hand03 Rope3_Seg09
Rope4_Seg01 null_rope04_connect
Rope4_Seg02 Rope4_Seg01
Rope4_Seg03 Rope4_Seg02
Rope4_Seg04 Rope4_Seg03
Rope4_Seg05 Rope4_Seg04
Rope4_Seg06 Rope4_Seg05
Rope4_Seg07 Rope4_Seg06
Rope4_Seg08 Rope4_Seg07
Rope4_Seg09 Rope4_Seg08
L_rear_hand01 Rope4_Seg09
L_rear_hand02 Rope4_Seg09
L_rear_hand03 Rope4_Seg09
[BasePosition]
#SegmentName Tx, Ty, Tz, Rx, Ry, Rz, BoneLength
MASTER 0.000000 0.000000 0.000000 -90.000000 0.000000 0.000000 10.000000 
root 0.000000 0.000000 0.000000 0.000000 0.000000 0.000000 10.000000 
chest 0.000000 0.000000 0.000000 0.000000 0.000000 0.000000 10.000000 
L_mid_tent01 0.000000 0.000000 0.000000 0.000000 0.000000 0.000000 10.000000 
R_mid_tent01 0.000000 0.000000 0.000000 0.000000 0.000000 0.000000 10.000000 
spine01 0.000000 0.000000 0.000000 0.000000 0.000000 0.000000 10.000000 
Bip01_Neck 0.000000 0.000000 0.000000 0.000000 0.000000 0.000000 10.000000 
L_humerus 0.000000 0.000000 0.000000 0.000000 0.000000 0.000000 10.000000 
R_humerus 0.000000 0.000000 0.000000 0.000000 0.000000 0.000000 10.000000 
weapon_bone 0.000000 0.000000 0.000000 0.000000 0.000000 0.000000 10.000000 
Bip01_Head 0.000000 0.000000 0.000000 0.000000 0.000000 0.000000 10.000000 
eye_left_bone 0.000000 0.000000 0.000000 0.000000 0.000000 0.000000 10.000000 
eye_right_bone 0.000000 0.000000 0.000000 0.000000 0.000000 0.000000 10.000000 
L_forearm 0.000000 0.000000 0.000000 0.000000 0.000000 0.000000 10.000000 
L_front_hand 0.000000 0.000000 0.000000 0.000000 0.000000 0.000000 10.000000 
L_weapon_bone 0.000000 0.000000 0.000000 0.000000 0.000000 0.000000 10.000000 
L_front_hand01_01 0.000000 0.000000 0.000000 0.000000 0.000000 0.000000 10.000000 
L_front_hand02_01 0.000000 0.000000 0.000000 0.000000 0.000000 0.000000 10.000000 
L_front_hand03_01 0.000000 0.000000 0.000000 0.000000 0.000000 0.000000 10.000000 
L_front_hand01_02 0.000000 0.000000 0.000000 0.000000 0.000000 0.000000 10.000000 
L_front_hand02_02 0.000000 0.000000 0.000000 0.000000 0.000000 0.000000 10.000000 
L_front_hand03_02 0.000000 0.000000 0.000000 0.000000 0.000000 0.000000 10.000000 
R_forearm 0.000000 0.000000 0.000000 0.000000 0.000000 0.000000 10.000000 
R_front_hand 0.000000 0.000000 0.000000 0.000000 0.000000 0.000000 10.000000 
R_weapon_bone 0.000000 0.000000 0.000000 0.000000 0.000000 0.000000 10.000000 
R_front_hand01_01 0.000000 0.000000 0.000000 0.000000 0.000000 0.000000 10.000000 
R_front_hand02_01 0.000000 0.000000 0.000000 0.000000 0.000000 0.000000 10.000000 
R_front_hand03_01 0.000000 0.000000 0.000000 0.000000 0.000000 0.000000 10.000000 
R_front_hand01_02 0.000000 0.000000 0.000000 0.000000 0.000000 0.000000 10.000000 
R_front_hand02_02 0.000000 0.000000 0.000000 0.000000 0.000000 0.000000 10.000000 
R_front_hand03_02 0.000000 0.000000 0.000000 0.000000 0.000000 0.000000 10.000000 
null_rope01_connect 0.000000 0.000000 0.000000 0.000000 0.000000 0.000000 10.000000 
Rope1_Seg01 0.000000 0.000000 0.000000 0.000000 0.000000 0.000000 10.000000 
Rope1_Seg02 0.000000 0.000000 0.000000 0.000000 0.000000 0.000000 10.000000 
Rope1_Seg03 0.000000 0.000000 0.000000 0.000000 0.000000 0.000000 10.000000 
Rope1_Seg04 0.000000 0.000000 0.000000 0.000000 0.000000 0.000000 10.000000 
Rope1_Seg05 0.000000 0.000000 0.000000 0.000000 0.000000 0.000000 10.000000 
Rope1_Seg06 0.000000 0.000000 0.000000 0.000000 0.000000 0.000000 10.000000 
Rope1_Seg07 0.000000 0.000000 0.000000 0.000000 0.000000 0.000000 10.000000 
Rope1_Seg09 0.000000 0.000000 0.000000 0.000000 0.000000 0.000000 10.000000 
L_mid_hand01 0.000000 0.000000 0.000000 0.000000 0.000000 0.000000 10.000000 
L_mid_hand02 0.000000 0.000000 0.000000 0.000000 0.000000 0.000000 10.000000 
L_mid_hand03 0.000000 0.000000 0.000000 0.000000 0.000000 0.000000 10.000000 
null_rope02_connect 0.000000 0.000000 0.000000 0.000000 0.000000 0.000000 10.000000 
Rope2_Seg01 0.000000 0.000000 0.000000 0.000000 0.000000 0.000000 10.000000 
Rope2_Seg02 0.000000 0.000000 0.000000 0.000000 0.000000 0.000000 10.000000 
Rope2_Seg03 0.000000 0.000000 0.000000 0.000000 0.000000 0.000000 10.000000 
Rope2_Seg04 0.000000 0.000000 0.000000 0.000000 0.000000 0.000000 10.000000 
Rope2_Seg05 0.000000 0.000000 0.000000 0.000000 0.000000 0.000000 10.000000 
Rope2_Seg06 0.000000 0.000000 0.000000 0.000000 0.000000 0.000000 10.000000 
Rope2_Seg07 0.000000 0.000000 0.000000 0.000000 0.000000 0.000000 10.000000 
Rope2_Seg09 0.000000 0.000000 0.000000 0.000000 0.000000 0.000000 10.000000 
R_mid_hand01 0.000000 0.000000 0.000000 0.000000 0.000000 0.000000 10.000000 
R_mid_hand02 0.000000 0.000000 0.000000 0.000000 0.000000 0.000000 10.000000 
R_mid_hand03 0.000000 0.000000 0.000000 0.000000 0.000000 0.000000 10.000000 
spine02 0.000000 0.000000 0.000000 0.000000 0.000000 0.000000 10.000000 
spine03 0.000000 0.000000 0.000000 0.000000 0.000000 0.000000 10.000000 
pelvis 0.000000 0.000000 0.000000 0.000000 0.000000 0.000000 10.000000 
null_rope03_connect 0.000000 0.000000 0.000000 0.000000 0.000000 0.000000 10.000000 
null_rope04_connect 0.000000 0.000000 0.000000 0.000000 0.000000 0.000000 10.000000 
Rope3_Seg01 0.000000 0.000000 0.000000 0.000000 0.000000 0.000000 10.000000 
Rope3_Seg02 0.000000 0.000000 0.000000 0.000000 0.000000 0.000000 10.000000 
Rope3_Seg03 0.000000 0.000000 0.000000 0.000000 0.000000 0.000000 10.000000 
Rope3_Seg04 0.000000 0.000000 0.000000 0.000000 0.000000 0.000000 10.000000 
Rope3_Seg05 0.000000 0.000000 0.000000 0.000000 0.000000 0.000000 10.000000 
Rope3_Seg06 0.000000 0.000000 0.000000 0.000000 0.000000 0.000000 10.000000 
Rope3_Seg07 0.000000 0.000000 0.000000 0.000000 0.000000 0.000000 10.000000 
Rope3_Seg08 0.000000 0.000000 0.000000 0.000000 0.000000 0.000000 10.000000 
Rope3_Seg09 0.000000 0.000000 0.000000 0.000000 0.000000 0.000000 10.000000 
R_rear_hand01 0.000000 0.000000 0.000000 0.000000 0.000000 0.000000 10.000000 
R_rear_hand02 0.000000 0.000000 0.000000 0.000000 0.000000 0.000000 10.000000 
R_rear_hand03 0.000000 0.000000 0.000000 0.000000 0.000000 0.000000 10.000000 
Rope4_Seg01 0.000000 0.000000 0.000000 0.000000 0.000000 0.000000 10.000000 
Rope4_Seg02 0.000000 0.000000 0.000000 0.000000 0.000000 0.000000 10.000000 
Rope4_Seg03 0.000000 0.000000 0.000000 0.000000 0.000000 0.000000 10.000000 
Rope4_Seg04 0.000000 0.000000 0.000000 0.000000 0.000000 0.000000 10.000000 
Rope4_Seg05 0.000000 0.000000 0.000000 0.000000 0.000000 0.000000 10.000000 
Rope4_Seg06 0.000000 0.000000 0.000000 0.000000 0.000000 0.000000 10.000000 
Rope4_Seg07 0.000000 0.000000 0.000000 0.000000 0.000000 0.000000 10.000000 
Rope4_Seg08 0.000000 0.000000 0.000000 0.000000 0.000000 0.000000 10.000000 
Rope4_Seg09 0.000000 0.000000 0.000000 0.000000 0.000000 0.000000 10.000000 
L_rear_hand01 0.000000 0.000000 0.000000 0.000000 0.000000 0.000000 10.000000 
L_rear_hand02 0.000000 0.000000 0.000000 0.000000 0.000000 0.000000 10.000000 
L_rear_hand03 0.000000 0.000000 0.000000 0.000000 0.000000 0.000000 10.000000 
#Beginning of Data. Separated by tabs
#Fr	Tx	Ty	Tz	Rx	Ry	Rz	SF
[MASTER]
24 0.000000 0.000000 0.000000 0.001660 0.001660 0.001660 0.000000
25 0.000000 0.000000 0.000000 0.001660 0.001660 0.001660 0.000000
[root]
24 -29.529287 -13.507765 1278.258789 -89.284081 -37.742710 -89.192818 1278.671143
25 -33.423431 -9.995232 1287.604980 -89.045914 -36.449768 -88.885727 1288.077393
[chest]
24 -84.512650 -34.090519 0.000000 1.664515 -1.646990 -134.344513 91.129311
25 -84.512650 -34.090519 0.000000 1.564960 -1.542787 -135.905685 91.129311
[L_mid_tent01]
24 27.365774 22.139587 -250.341827 -12.152048 -3.937724 51.183563 252.804428
25 27.360262 22.142740 -250.306519 -11.689715 -0.898874 51.878555 252.769135
[R_mid_tent01]
24 23.228794 24.509907 226.238495 -172.547241 -3.906232 53.832821 228.744751
25 23.228794 24.509907 226.238495 -173.312469 -7.359643 54.495457 228.744751
[spine01]
24 -0.361383 -0.195265 0.000000 0.001927 0.001340 20.366245 0.410763
25 -0.361383 -0.195265 0.000000 0.001925 0.001343 20.200529 0.410763
[Bip01_Neck]
24 165.484543 71.581718 0.000119 175.896118 1.177290 24.871183 180.302734
25 165.484543 71.581718 0.000119 175.896118 1.177290 24.871183 180.302734
[L_humerus]
24 -13.983130 -135.272980 -120.471481 -114.044334 -0.872707 -80.029449 181.680161
25 -13.983130 -135.272980 -120.471481 -131.359695 0.681438 -81.648010 181.680161
[R_humerus]
24 -13.983309 -135.273102 125.287651 106.452583 -3.452973 -73.662613 184.909012
25 -13.983309 -135.273102 125.287651 121.582352 -4.584417 -76.640381 184.909012
[weapon_bone]
24 235.964890 -300.705902 0.000000 0.000000 -89.951546 -128.212341 382.234833
25 235.964890 -300.705902 0.000000 0.000000 -89.951546 -128.212341 382.234833
[Bip01_Head]
24 102.819778 23.735565 5.410279 3.150731 3.423701 -20.839088 105.662460
25 102.819778 23.735571 5.410274 3.150732 3.423701 -20.839092 105.662460
[eye_left_bone]
24 -24.626970 125.451866 -64.772606 0.000000 -90.000000 -99.840431 143.318359
25 -24.626970 125.451866 -64.772606 0.000000 -90.000000 -99.840431 143.318359
[eye_right_bone]
24 -24.626970 125.451866 64.327362 0.000000 -89.960434 80.159386 143.117676
25 -24.626970 125.451866 64.327362 0.000000 -89.960434 80.159386 143.117676
[L_forearm]
24 322.776093 0.000000 -0.000119 0.000110 0.002345 -84.644112 322.776093
25 322.776093 0.000000 -0.000119 0.000119 0.002344 -84.172523 322.776093
[L_front_hand]
24 241.149185 -0.042021 -3.300071 -177.774551 0.440909 -92.584236 241.171753
25 241.149185 -0.042021 -3.300071 -177.788651 0.498403 -94.119820 241.171753
[L_weapon_bone]
24 156.183838 0.000000 0.000000 0.002057 0.001130 32.446911 156.183838
25 156.183838 0.000000 0.000000 0.002045 0.001152 31.222902 156.183838
[L_front_hand01_01]
24 86.095154 20.947098 -0.655860 0.405585 -0.442306 -4.620490 88.609184
25 86.095154 20.947098 -0.655860 0.405585 -0.442306 -4.620490 88.609184
[L_front_hand02_01]
24 86.935165 -11.437475 24.513514 116.959450 3.630817 1.495453 91.046425
25 86.935165 -11.437475 24.513514 116.959450 3.630817 1.495453 91.046425
[L_front_hand03_01]
24 86.637497 -14.123976 -20.424902 -118.420097 -4.656303 -0.152527 90.126129
25 86.637497 -14.123976 -20.424902 -118.420097 -4.656303 -0.152527 90.126129
[L_front_hand01_02]
24 71.020905 -0.000179 0.000030 0.001534 0.001777 -8.378850 71.020905
25 71.020905 -0.000179 0.000030 0.001534 0.001777 -8.378850 71.020905
[L_front_hand02_02]
24 71.020927 -0.000119 0.000060 0.001534 0.001777 -8.378850 71.020927
25 71.020927 -0.000119 0.000060 0.001534 0.001777 -8.378850 71.020927
[L_front_hand03_02]
24 71.020905 -0.000060 0.000060 0.001534 0.001777 -8.378850 71.020905
25 71.020905 -0.000060 0.000060 0.001534 0.001777 -8.378850 71.020905
[R_forearm]
24 322.776428 -0.000060 0.000030 0.212069 -0.027645 -83.263008 322.776428
25 322.776428 -0.000060 0.000030 0.208117 -0.032576 -82.359657 322.776428
[R_front_hand]
24 238.847015 -0.006795 2.210259 -1.702264 -0.301913 -88.769455 238.857239
25 238.847015 -0.006795 2.210259 -1.702523 -0.301594 -88.765015 238.857239
[R_weapon_bone]
24 155.664093 0.002503 -0.000030 0.003154 0.001898 -115.676384 155.664078
25 155.664093 0.002503 -0.000030 0.003188 0.001839 -113.560799 155.664078
[R_front_hand01_01]
24 87.624611 14.231146 22.918642 -116.960205 3.496675 -1.324138 91.683487
25 87.624611 14.231146 22.918642 -116.960205 3.496675 -1.324138 91.683487
[R_front_hand02_01]
24 89.356956 14.367283 -19.491137 118.419647 -4.257089 0.609827 92.579636
25 89.356956 14.367283 -19.491137 118.419647 -4.257089 0.609827 92.579636
[R_front_hand03_01]
24 87.286232 -22.307278 -0.143439 -0.387970 -0.231462 4.232001 90.091743
25 87.286232 -22.307278 -0.143439 -0.387970 -0.231462 4.232001 90.091743
[R_front_hand01_02]
24 71.020905 0.000060 0.000119 0.001777 0.001534 8.377218 71.020905
25 71.020905 0.000060 0.000119 0.001777 0.001534 8.377220 71.020905
[R_front_hand02_02]
24 71.020844 -0.000030 -0.000119 0.001777 0.001534 8.377218 71.020836
25 71.020844 -0.000030 -0.000119 0.001777 0.001534 8.377220 71.020836
[R_front_hand03_02]
24 71.020905 0.000000 0.000030 0.001777 0.001534 8.377218 71.020905
25 71.020905 0.000000 0.000030 0.001777 0.001534 8.377220 71.020905
[null_rope01_connect]
24 328.732483 0.000000 -0.000238 142.962357 -77.010315 -65.835922 328.732483
25 328.732483 0.000000 -0.000238 151.340515 -78.284554 -76.495522 328.732483
[Rope1_Seg01]
24 0.000000 0.000000 0.000000 124.922089 22.362185 -172.152206 0.000000
25 0.000000 0.000000 0.000000 124.571190 22.437346 -174.354843 0.000000
[Rope1_Seg02]
24 139.999863 -0.000179 0.000000 4.284755 -8.659377 1.225709 139.999863
25 139.999863 -0.000179 0.000000 4.544854 -10.130847 1.417326 139.999863
[Rope1_Seg03]
24 139.999924 0.000060 -0.000060 5.086944 -19.317604 4.022880 139.999924
25 139.999924 0.000060 -0.000060 5.094543 -23.294416 4.032279 139.999924
[Rope1_Seg04]
24 139.999924 -0.000060 -0.000119 1.007504 -42.692650 2.454546 139.999924
25 139.999924 -0.000060 -0.000119 -2.158678 -40.837177 3.434176 139.999924
[Rope1_Seg05]
24 139.999832 0.000119 -0.000060 -3.653949 -20.589029 29.021450 139.999832
25 139.999832 0.000119 -0.000060 0.939566 -17.447945 31.662851 139.999832
[Rope1_Seg06]
24 139.999954 0.000119 -0.000060 66.339081 -6.906592 42.152504 139.999954
25 139.999954 0.000119 -0.000060 59.871082 -4.941665 35.215683 139.999954
[Rope1_Seg07]
24 139.999985 0.000060 0.000000 30.345564 9.362169 8.644997 139.999985
25 139.999985 0.000060 0.000000 29.712898 7.535394 8.271653 139.999985
[Rope1_Seg09]
24 121.602913 0.000119 -0.000089 -89.793175 -1.359789 0.847147 121.602913
25 121.602913 0.000119 -0.000089 -89.793175 -1.359789 0.847147 121.602913
[L_mid_hand01]
24 103.859421 1.038730 8.195221 104.352036 0.341479 -0.444583 104.187431
25 103.859421 1.038730 8.195221 104.352036 0.341479 -0.444583 104.187431
[L_mid_hand02]
24 105.572853 -4.139662 -10.864139 -135.608444 3.905687 -3.381056 106.211075
25 105.572853 -4.139662 -10.864139 -135.608444 3.905687 -3.381056 106.211075
[L_mid_hand03]
24 104.641464 17.579376 -3.913581 -18.761520 -0.324361 2.942913 106.179977
25 104.641464 17.579376 -3.913581 -18.761518 -0.324361 2.942912 106.179977
[null_rope02_connect]
24 328.732849 0.000179 -0.000119 -161.775833 80.717484 -55.346386 328.732849
25 328.732849 0.000179 -0.000119 -145.145874 78.524445 -36.567665 328.732849
[Rope2_Seg01]
24 0.000076 0.000111 0.000153 -61.037830 19.972340 -4.748202 0.000203
25 0.000076 0.000111 0.000153 -61.190239 20.379778 -3.112788 0.000203
[Rope2_Seg02]
24 139.999741 -0.000060 -0.000119 -6.007201 -4.046179 7.324926 139.999756
25 139.999741 -0.000060 -0.000119 -6.475567 -4.667423 8.443088 139.999756
[Rope2_Seg03]
24 140.000107 0.000030 0.000000 -8.874665 -9.847744 15.741858 140.000107
25 140.000107 0.000030 0.000000 -10.172659 -10.639592 19.255016 140.000107
[Rope2_Seg04]
24 139.999802 0.000000 -0.000060 -12.894522 -14.546673 40.397144 139.999802
25 139.999802 0.000000 -0.000060 -10.090684 -15.900991 37.629829 139.999802
[Rope2_Seg05]
24 139.999985 -0.000060 0.000119 -7.302592 -43.822018 -7.382918 139.999985
25 139.999985 -0.000060 0.000119 -9.411321 -45.416874 -13.985414 139.999985
[Rope2_Seg06]
24 139.999893 -0.000030 -0.000119 -29.545465 -30.243307 -26.800320 139.999893
25 139.999893 -0.000030 -0.000119 -26.384197 -23.952337 -22.026060 139.999893
[Rope2_Seg07]
24 139.999893 0.000060 -0.000060 -8.992925 -4.104541 -8.176803 139.999893
25 139.999893 0.000060 -0.000060 -8.440285 -3.953593 -7.189625 139.999893
[Rope2_Seg09]
24 121.338966 0.000089 -0.000060 33.793236 -1.359788 -0.847141 121.338966
25 121.338966 0.000089 -0.000060 33.793236 -1.359788 -0.847141 121.338966
[R_mid_hand01]
24 104.680779 11.144459 -10.335981 -47.384243 2.963521 5.452602 105.778534
25 104.680779 11.144459 -10.335981 -47.384243 2.963521 5.452602 105.778534
[R_mid_hand02]
24 104.070427 2.443552 8.231699 75.626297 -2.250001 1.111093 104.424065
25 104.070427 2.443552 8.231699 75.626297 -2.250001 1.111093 104.424065
[R_mid_hand03]
24 106.028137 -11.221827 -5.996406 -164.381927 2.495983 -6.140520 106.788818
25 106.028137 -11.221827 -5.996406 -164.381927 2.495984 -6.140522 106.788818
[spine02]
24 129.756927 0.001550 0.000119 -1.442208 -3.839650 12.720125 129.756927
25 129.756927 0.001550 0.000119 -1.392994 -3.851363 11.986901 129.756927
[spine03]
24 78.955521 0.027759 -1.563563 -0.602928 4.743099 -16.299097 78.971008
25 78.945412 0.029522 -1.662231 -0.636328 4.693516 -16.790112 78.962914
[pelvis]
24 169.435242 0.051022 0.000000 -4.999647 -2.361623 9.375863 169.435257
25 169.435242 0.051022 0.000000 -4.830961 -2.308967 9.010107 169.435257
[null_rope03_connect]
24 -1.257226 -2.466202 137.391083 163.432892 -84.343346 -61.689716 137.418976
25 -1.257226 -2.466202 137.391083 157.834488 -84.573784 -55.613712 137.418976
[null_rope04_connect]
24 -1.259640 -2.480268 -137.844437 163.432892 -84.343346 -61.689716 137.872513
25 -1.259640 -2.480268 -137.844437 157.834488 -84.573784 -55.613712 137.872513
[Rope3_Seg01]
24 0.000055 0.000085 0.000000 -134.569153 22.889423 -85.453514 0.000101
25 0.000056 0.000082 0.000000 -132.703506 16.010376 -83.765648 0.000099
[Rope3_Seg02]
24 139.999924 -0.000119 0.000060 -87.134781 -83.465294 106.703285 139.999924
25 139.999924 -0.000119 0.000060 -162.224533 -72.648148 -164.681519 139.999924
[Rope3_Seg03]
24 139.999924 -0.000119 0.000119 13.864037 -53.949078 32.503254 139.999924
25 139.999924 -0.000119 0.000119 17.729979 -39.964149 36.544632 139.999924
[Rope3_Seg04]
24 139.999924 0.000119 0.000000 3.528809 -6.932607 14.696157 139.999924
25 139.999924 0.000119 0.000000 2.530345 -3.515162 12.092217 139.999924
[Rope3_Seg05]
24 139.999924 -0.000238 0.000060 1.196075 -2.858465 6.743901 139.999924
25 139.999924 -0.000238 0.000060 0.816250 -1.249824 4.737410 139.999924
[Rope3_Seg06]
24 139.999893 -0.000119 -0.000060 0.854370 -1.575997 3.848732 139.999893
25 139.999893 -0.000119 -0.000060 0.730442 -0.724237 2.890686 139.999893
[Rope3_Seg07]
24 139.999771 0.000060 -0.000119 0.734649 -1.034450 2.651249 139.999771
25 139.999771 0.000060 -0.000119 0.685677 -0.480387 2.026672 139.999771
[Rope3_Seg08]
24 139.999985 -0.000060 0.000000 0.650447 -0.626050 1.659961 139.999985
25 139.999985 -0.000060 0.000000 0.631529 -0.287349 1.286002 139.999985
[Rope3_Seg09]
24 90.185997 -0.000179 -0.000060 89.793228 -1.359877 -0.847183 90.185997
25 90.185997 -0.000179 -0.000060 89.793228 -1.359877 -0.847183 90.185997
[R_rear_hand01]
24 103.366196 -6.073594 -10.757982 -156.049316 6.070419 -2.795869 104.101845
25 103.366196 -6.073594 -10.757982 -156.049316 6.070419 -2.795869 104.101845
[R_rear_hand02]
24 100.509819 12.039542 -7.992327 -38.708435 1.958051 5.461186 101.543350
25 100.509819 12.039542 -7.992327 -38.708435 1.958051 5.461186 101.543350
[R_rear_hand03]
24 101.539970 5.215704 5.435467 84.307625 -2.361032 4.099037 101.819031
25 101.539970 5.215704 5.435467 84.307632 -2.361033 4.099038 101.819031
[Rope4_Seg01]
24 0.000000 -0.000008 -0.000085 64.570580 43.766251 -82.127251 0.000085
25 0.000000 -0.000012 -0.000082 61.373856 38.908684 -83.527580 0.000083
[Rope4_Seg02]
24 139.999985 0.000060 0.000119 3.454815 -1.582863 -9.861903 139.999985
25 139.999985 0.000060 0.000119 10.709284 -25.660378 -87.482010 139.999985
[Rope4_Seg03]
24 139.999924 0.000000 -0.000238 -17.111206 -17.906710 -115.876198 139.999924
25 139.999924 0.000000 -0.000238 -68.564514 0.983556 -70.903427 139.999924
[Rope4_Seg04]
24 139.999985 0.000000 0.000119 -28.382893 22.128881 -22.415852 139.999985
25 139.999985 0.000000 0.000119 0.751266 8.134347 4.955372 139.999985
[Rope4_Seg05]
24 139.999802 -0.000060 -0.000119 -0.248122 9.515270 3.500152 139.999802
25 139.999802 -0.000060 -0.000119 -0.038125 3.058963 1.103951 139.999802
[Rope4_Seg06]
24 139.999924 0.000000 0.000060 -0.353668 3.470230 0.357104 139.999924
25 139.999924 0.000000 0.000060 0.043164 1.935285 0.699839 139.999924
[Rope4_Seg07]
24 139.999802 0.000000 0.000000 -0.107652 2.153375 0.237073 139.999802
25 139.999802 0.000000 0.000000 0.096543 1.361350 0.492468 139.999802
[Rope4_Seg08]
24 139.999924 0.000000 0.000119 -1.579520 1.274808 0.142376 139.999924
25 139.999924 0.000000 0.000119 -1.474833 0.866307 0.312017 139.999924
[Rope4_Seg09]
24 90.185791 0.000060 0.000060 -135.617828 2.228885 0.850567 90.185791
25 90.185791 0.000060 0.000060 -135.617828 2.228885 0.850567 90.185791
[L_rear_hand01]
24 101.696655 -8.392275 -7.654577 -38.746349 0.246096 177.290207 102.329041
25 101.696655 -8.392275 -7.654577 -38.746338 0.246096 177.290207 102.329041
[L_rear_hand02]
24 102.726799 -1.568258 5.773216 84.315163 -1.142796 176.247437 102.900848
25 102.726799 -1.568258 5.773216 84.315163 -1.142796 176.247437 102.900848
[L_rear_hand03]
24 104.552910 9.721220 -10.420293 -155.747955 -4.630845 179.564758 105.519653
25 104.552910 9.721220 -10.420293 -155.747955 -4.630845 179.564758 105.519653
